# xmcd
#
# Track frame offsets: 
#        150
#        17983
#        30212
#        47952
#        59627
#        76736
#        96871
#        114631
#        130828
#        144187
#        153332
#        162591
#        176802
#        190956
#        200182
#
# Disc length: 3017 seconds
#
# Revision: 2
# Processed by: cddbd v1.5.1PL0 Copyright (c) Steve Scherf et al.
# Submitted via: ExactAudioCopy v0.95a5
#
DISCID=d10bc70f
DTITLE=à©©Ô¡E¦Æ¡EÀ¹­ÛUlla Van Daelen - ¤@¤d¹s¤@©]Shalimar
DYEAR=2003
DGENRE=New Age
TTITLE0=La Source 
TTITLE1=Angie
TTITLE2=Rising Sun
TTITLE3=Misty
TTITLE4=Fantasie uber ein Thema von Haydn 
TTITLE5=Wednesday
TTITLE6=Sharlimar
TTITLE7=Sonatina
TTITLE8=Sarabande aus "Violinpartita Nr. 1"
TTITLE9=Toccata
TTITLE10=Boliviana
TTITLE11=Minnelied
TTITLE12=Nocturne aus "Petite Suite" (1960)
TTITLE13=Bobo-bobo
TTITLE14=Absidoles (1974)
EXTD=YEAR: 2003
EXTT0=
EXTT1=
EXTT2=
EXTT3=
EXTT4=
EXTT5=
EXTT6=
EXTT7=
EXTT8=
EXTT9=
EXTT10=
EXTT11=
EXTT12=
EXTT13=
EXTT14=
PLAYORDER=
